# MagicaVoxel @ Ephtracy

# group
o tutorial

# material
mtllib coast-world-0-tutorial.mtl
usemtl palette

# normals
vn -1 0 0
vn 1 0 0
vn 0 0 1
vn 0 0 -1
vn 0 -1 0
vn 0 1 0

# texcoords
vt 0.0878906 0.5

# verts
v -6.4 0 6.4
v -6.4 0 -6.4
v -6.4 0.8 6.4
v -6.4 0.8 0.0999999
v -6.4 1.4 0.0999999
v -6.4 1.4 -6.4
v -4.9 0.8 6.4
v -4.9 0.8 0.0999999
v -4.9 0.9 6.4
v -4.9 0.9 0.0999999
v -4.1 0.9 6.4
v -4.1 0.9 0.0999999
v -4.1 1 6.4
v -4.1 1 0.0999999
v -3 1 6.4
v -3 1 0.0999999
v -3 1.2 6.4
v -3 1.2 0.0999999
v -1.8 1.2 6.4
v -1.8 1.2 0.0999999
v -1.8 1.4 6.4
v -1.8 1.4 0.0999999
v -1.5 0.3 -3.2
v -1.5 0.3 -6.4
v -1.5 1.4 -3.2
v -1.5 1.4 -6.4
v 0 0.3 -2.4
v 0 0.3 -3.2
v 0 0.7 -2.4
v 0 0.7 -3.2
v 2.3 0.7 -3.3
v 2.3 0.7 -6.4
v 2.3 1.4 -3.3
v 2.3 1.4 -6.4
v 5 0.3 -1
v 5 0.3 -6.4
v 5 1.4 -1
v 5 1.4 -6.4
v 5.3 0.8 0.0999999
v 5.3 0.8 0
v 5.3 1.1 0.0999999
v 5.3 1.1 0
v -3.1 0.3 -1
v -3.1 0.3 -6.4
v -3.1 1.4 -1
v -3.1 1.4 -6.4
v 0 0.7 -3.2
v 0 0.7 -6.4
v 0 1.4 -3.2
v 0 1.4 -6.4
v 2.4 0.3 -2.4
v 2.4 0.3 -3.3
v 2.4 0.7 -2.4
v 2.4 0.7 -3.3
v 4 0.3 -3.3
v 4 0.3 -6.4
v 4 1.4 -3.3
v 4 1.4 -6.4
v 4.9 0.8 0.0999999
v 4.9 0.8 0
v 4.9 1.3 6.4
v 4.9 1.3 0.0999999
v 4.9 1.4 6.4
v 4.9 1.4 0
v 5.3 1.1 6.4
v 5.3 1.1 0.0999999
v 5.3 1.3 6.4
v 5.3 1.3 0.0999999
v 5.7 0.9 6.4
v 5.7 0.9 0
v 5.7 1.1 6.4
v 5.7 1.1 0
v 6 0.8 6.4
v 6 0.8 0
v 6 0.9 6.4
v 6 0.9 0
v 6.4 0 6.4
v 6.4 0 -6.4
v 6.4 0.8 6.4
v 6.4 0.8 0
v 6.4 1.4 0
v 6.4 1.4 -6.4
v -6.4 0 6.4
v -6.4 0.8 6.4
v -4.9 0.8 6.4
v -4.9 0.9 6.4
v -4.1 0.9 6.4
v -4.1 1 6.4
v -3 1 6.4
v -3 1.2 6.4
v -1.8 1.2 6.4
v -1.8 1.4 6.4
v 4.9 1.3 6.4
v 4.9 1.4 6.4
v 5.3 1.1 6.4
v 5.3 1.3 6.4
v 5.7 0.9 6.4
v 5.7 1.1 6.4
v 6 0.8 6.4
v 6 0.9 6.4
v 6.4 0 6.4
v 6.4 0.8 6.4
v -6.4 0.8 0.0999999
v -6.4 1.4 0.0999999
v -4.9 0.8 0.0999999
v -4.9 0.9 0.0999999
v -4.1 0.9 0.0999999
v -4.1 1 0.0999999
v -3 1 0.0999999
v -3 1.2 0.0999999
v -1.8 1.2 0.0999999
v -1.8 1.4 0.0999999
v 4.9 0.8 0
v 4.9 1.4 0
v 5.3 0.8 0
v 5.3 1.1 0
v 5.7 0.9 0
v 5.7 1.1 0
v 6 0.8 0
v 6 0.9 0
v 6.4 0.8 0
v 6.4 1.4 0
v 0 0.3 -2.4
v 0 0.7 -2.4
v 2.4 0.3 -2.4
v 2.4 0.7 -2.4
v -1.5 0.3 -3.2
v -1.5 1.4 -3.2
v 0 0.3 -3.2
v 0 0.7 -3.2
v 0 1.4 -3.2
v 2.3 0.7 -3.3
v 2.3 1.4 -3.3
v 2.4 0.3 -3.3
v 2.4 0.7 -3.3
v 4 0.3 -3.3
v 4 1.4 -3.3
v 4.9 0.8 0.0999999
v 4.9 1.3 0.0999999
v 5.3 0.8 0.0999999
v 5.3 1.1 0.0999999
v 5.3 1.3 0.0999999
v -3.1 0.3 -1
v -3.1 1.4 -1
v 5 0.3 -1
v 5 1.4 -1
v -6.4 0 -6.4
v -6.4 1.4 -6.4
v -3.1 0.3 -6.4
v -3.1 1.4 -6.4
v -1.5 0.3 -6.4
v -1.5 1.4 -6.4
v 0 0.7 -6.4
v 0 1.4 -6.4
v 2.3 0.7 -6.4
v 2.3 1.4 -6.4
v 4 0.3 -6.4
v 4 1.4 -6.4
v 5 0.3 -6.4
v 5 1.4 -6.4
v 6.4 0 -6.4
v 6.4 1.4 -6.4
v -6.4 0 6.4
v 6.4 0 6.4
v -6.4 0 -6.4
v 6.4 0 -6.4
v -3.1 0.3 -1
v 5 0.3 -1
v 0 0.3 -2.4
v 2.4 0.3 -2.4
v -1.5 0.3 -3.2
v 0 0.3 -3.2
v 2.4 0.3 -3.3
v 4 0.3 -3.3
v -3.1 0.3 -6.4
v -1.5 0.3 -6.4
v 4 0.3 -6.4
v 5 0.3 -6.4
v 0 0.7 -2.4
v 2.4 0.7 -2.4
v 0 0.7 -3.2
v 2.3 0.7 -3.3
v 2.4 0.7 -3.3
v 0 0.7 -6.4
v 2.3 0.7 -6.4
v -6.4 0.8 6.4
v -4.9 0.8 6.4
v 6 0.8 6.4
v 6.4 0.8 6.4
v -6.4 0.8 0.0999999
v -4.9 0.8 0.0999999
v 4.9 0.8 0.0999999
v 5.3 0.8 0.0999999
v 4.9 0.8 0
v 5.3 0.8 0
v 6 0.8 0
v 6.4 0.8 0
v -4.9 0.9 6.4
v -4.1 0.9 6.4
v 5.7 0.9 6.4
v 6 0.9 6.4
v -4.9 0.9 0.0999999
v -4.1 0.9 0.0999999
v 5.7 0.9 0
v 6 0.9 0
v -4.1 1 6.4
v -3 1 6.4
v -4.1 1 0.0999999
v -3 1 0.0999999
v 5.3 1.1 6.4
v 5.7 1.1 6.4
v 5.3 1.1 0.0999999
v 5.3 1.1 0
v 5.7 1.1 0
v -3 1.2 6.4
v -1.8 1.2 6.4
v -3 1.2 0.0999999
v -1.8 1.2 0.0999999
v 4.9 1.3 6.4
v 5.3 1.3 6.4
v 4.9 1.3 0.0999999
v 5.3 1.3 0.0999999
v -1.8 1.4 6.4
v 4.9 1.4 6.4
v -6.4 1.4 0.0999999
v -1.8 1.4 0.0999999
v 4.9 1.4 0
v 6.4 1.4 0
v -3.1 1.4 -1
v 5 1.4 -1
v -1.5 1.4 -3.2
v 0 1.4 -3.2
v 2.3 1.4 -3.3
v 4 1.4 -3.3
v -6.4 1.4 -6.4
v -3.1 1.4 -6.4
v -1.5 1.4 -6.4
v 0 1.4 -6.4
v 2.3 1.4 -6.4
v 4 1.4 -6.4
v 5 1.4 -6.4
v 6.4 1.4 -6.4

# faces
f 3/1/1 2/1/1 1/1/1
f 4/1/1 2/1/1 3/1/1
f 5/1/1 2/1/1 4/1/1
f 6/1/1 2/1/1 5/1/1
f 9/1/1 8/1/1 7/1/1
f 10/1/1 8/1/1 9/1/1
f 13/1/1 12/1/1 11/1/1
f 14/1/1 12/1/1 13/1/1
f 17/1/1 16/1/1 15/1/1
f 18/1/1 16/1/1 17/1/1
f 21/1/1 20/1/1 19/1/1
f 22/1/1 20/1/1 21/1/1
f 25/1/1 24/1/1 23/1/1
f 26/1/1 24/1/1 25/1/1
f 29/1/1 28/1/1 27/1/1
f 30/1/1 28/1/1 29/1/1
f 33/1/1 32/1/1 31/1/1
f 34/1/1 32/1/1 33/1/1
f 37/1/1 36/1/1 35/1/1
f 38/1/1 36/1/1 37/1/1
f 41/1/1 40/1/1 39/1/1
f 42/1/1 40/1/1 41/1/1
f 43/1/2 44/1/2 45/1/2
f 45/1/2 44/1/2 46/1/2
f 47/1/2 48/1/2 49/1/2
f 49/1/2 48/1/2 50/1/2
f 51/1/2 52/1/2 53/1/2
f 53/1/2 52/1/2 54/1/2
f 55/1/2 56/1/2 57/1/2
f 57/1/2 56/1/2 58/1/2
f 59/1/2 60/1/2 62/1/2
f 61/1/2 62/1/2 63/1/2
f 62/1/2 60/1/2 64/1/2
f 63/1/2 62/1/2 64/1/2
f 65/1/2 66/1/2 67/1/2
f 67/1/2 66/1/2 68/1/2
f 69/1/2 70/1/2 71/1/2
f 71/1/2 70/1/2 72/1/2
f 73/1/2 74/1/2 75/1/2
f 75/1/2 74/1/2 76/1/2
f 77/1/2 78/1/2 79/1/2
f 79/1/2 78/1/2 80/1/2
f 80/1/2 78/1/2 81/1/2
f 81/1/2 78/1/2 82/1/2
f 85/1/3 84/1/3 83/1/3
f 87/1/3 86/1/3 85/1/3
f 89/1/3 88/1/3 87/1/3
f 91/1/3 90/1/3 89/1/3
f 93/1/3 92/1/3 91/1/3
f 94/1/3 92/1/3 93/1/3
f 95/1/3 91/1/3 89/1/3
f 95/1/3 93/1/3 91/1/3
f 96/1/3 93/1/3 95/1/3
f 97/1/3 87/1/3 85/1/3
f 97/1/3 89/1/3 87/1/3
f 97/1/3 95/1/3 89/1/3
f 98/1/3 95/1/3 97/1/3
f 99/1/3 85/1/3 83/1/3
f 99/1/3 97/1/3 85/1/3
f 100/1/3 97/1/3 99/1/3
f 101/1/3 99/1/3 83/1/3
f 102/1/3 99/1/3 101/1/3
f 105/1/3 104/1/3 103/1/3
f 106/1/3 104/1/3 105/1/3
f 107/1/3 104/1/3 106/1/3
f 108/1/3 104/1/3 107/1/3
f 109/1/3 104/1/3 108/1/3
f 110/1/3 104/1/3 109/1/3
f 111/1/3 104/1/3 110/1/3
f 112/1/3 104/1/3 111/1/3
f 115/1/3 114/1/3 113/1/3
f 116/1/3 114/1/3 115/1/3
f 118/1/3 114/1/3 116/1/3
f 120/1/3 118/1/3 117/1/3
f 121/1/3 120/1/3 119/1/3
f 122/1/3 114/1/3 118/1/3
f 122/1/3 120/1/3 121/1/3
f 122/1/3 118/1/3 120/1/3
f 125/1/3 124/1/3 123/1/3
f 126/1/3 124/1/3 125/1/3
f 129/1/3 128/1/3 127/1/3
f 130/1/3 128/1/3 129/1/3
f 131/1/3 128/1/3 130/1/3
f 135/1/3 133/1/3 132/1/3
f 136/1/3 135/1/3 134/1/3
f 137/1/3 133/1/3 135/1/3
f 137/1/3 135/1/3 136/1/3
f 138/1/4 139/1/4 140/1/4
f 140/1/4 139/1/4 141/1/4
f 141/1/4 139/1/4 142/1/4
f 143/1/4 144/1/4 145/1/4
f 145/1/4 144/1/4 146/1/4
f 147/1/4 148/1/4 149/1/4
f 149/1/4 148/1/4 150/1/4
f 147/1/4 149/1/4 151/1/4
f 151/1/4 152/1/4 153/1/4
f 153/1/4 152/1/4 154/1/4
f 151/1/4 153/1/4 155/1/4
f 147/1/4 151/1/4 157/1/4
f 155/1/4 156/1/4 157/1/4
f 151/1/4 155/1/4 157/1/4
f 157/1/4 156/1/4 158/1/4
f 147/1/4 157/1/4 159/1/4
f 147/1/4 159/1/4 161/1/4
f 159/1/4 160/1/4 161/1/4
f 161/1/4 160/1/4 162/1/4
f 165/1/5 164/1/5 163/1/5
f 166/1/5 164/1/5 165/1/5
f 167/1/6 168/1/6 169/1/6
f 169/1/6 168/1/6 170/1/6
f 167/1/6 169/1/6 171/1/6
f 171/1/6 169/1/6 172/1/6
f 170/1/6 168/1/6 173/1/6
f 173/1/6 168/1/6 174/1/6
f 167/1/6 171/1/6 175/1/6
f 175/1/6 171/1/6 176/1/6
f 174/1/6 168/1/6 177/1/6
f 177/1/6 168/1/6 178/1/6
f 179/1/6 180/1/6 181/1/6
f 181/1/6 180/1/6 182/1/6
f 182/1/6 180/1/6 183/1/6
f 181/1/6 182/1/6 184/1/6
f 184/1/6 182/1/6 185/1/6
f 186/1/6 187/1/6 190/1/6
f 190/1/6 187/1/6 191/1/6
f 192/1/6 193/1/6 194/1/6
f 194/1/6 193/1/6 195/1/6
f 188/1/6 189/1/6 196/1/6
f 196/1/6 189/1/6 197/1/6
f 198/1/6 199/1/6 202/1/6
f 202/1/6 199/1/6 203/1/6
f 200/1/6 201/1/6 204/1/6
f 204/1/6 201/1/6 205/1/6
f 206/1/6 207/1/6 208/1/6
f 208/1/6 207/1/6 209/1/6
f 210/1/6 211/1/6 212/1/6
f 212/1/6 211/1/6 213/1/6
f 213/1/6 211/1/6 214/1/6
f 215/1/6 216/1/6 217/1/6
f 217/1/6 216/1/6 218/1/6
f 219/1/6 220/1/6 221/1/6
f 221/1/6 220/1/6 222/1/6
f 223/1/6 224/1/6 226/1/6
f 226/1/6 224/1/6 227/1/6
f 225/1/6 226/1/6 227/1/6
f 225/1/6 227/1/6 229/1/6
f 227/1/6 228/1/6 229/1/6
f 229/1/6 228/1/6 230/1/6
f 225/1/6 229/1/6 235/1/6
f 235/1/6 229/1/6 236/1/6
f 231/1/6 232/1/6 237/1/6
f 237/1/6 232/1/6 238/1/6
f 233/1/6 234/1/6 239/1/6
f 239/1/6 234/1/6 240/1/6
f 230/1/6 228/1/6 241/1/6
f 241/1/6 228/1/6 242/1/6
